<mxfile host="app.diagrams.net" modified="2023-12-15T09:49:45.283Z" agent="Mozilla/5.0 (Macintosh; Intel Mac OS X 10_15_7) AppleWebKit/537.36 (KHTML, like Gecko) Chrome/119.0.0.0 Safari/537.36" etag="IiIvmuLR27VmbQKqEzEV" version="22.1.9" type="github">
  <diagram name="Page-1" id="FE-47qsWvYnsMxgvIYbm">
    <mxGraphModel dx="2578" dy="973" grid="1" gridSize="10" guides="1" tooltips="1" connect="1" arrows="1" fold="1" page="1" pageScale="1" pageWidth="850" pageHeight="1100" math="0" shadow="0">
      <root>
        <mxCell id="0" />
        <mxCell id="1" parent="0" />
        <mxCell id="6HdpZ-S6u97lX5I0Tlse-1" value="Cloud Service&lt;br&gt;(Firebase)" style="ellipse;shape=cloud;whiteSpace=wrap;html=1;strokeWidth=3;" parent="1" vertex="1">
          <mxGeometry x="20" y="315" width="180" height="120" as="geometry" />
        </mxCell>
        <mxCell id="6HdpZ-S6u97lX5I0Tlse-3" value="Server" style="sketch=0;outlineConnect=0;fontColor=#232F3E;gradientColor=none;fillColor=#232F3D;strokeColor=none;dashed=0;verticalLabelPosition=bottom;verticalAlign=top;align=center;html=1;fontSize=12;fontStyle=0;aspect=fixed;pointerEvents=1;shape=mxgraph.aws4.servers;" parent="1" vertex="1">
          <mxGeometry x="-250" y="160" width="90" height="90" as="geometry" />
        </mxCell>
        <mxCell id="28p1LHsWdC4im2PrQQWG-3" style="shape=connector;rounded=0;orthogonalLoop=1;jettySize=auto;html=1;labelBackgroundColor=default;strokeColor=default;align=center;verticalAlign=middle;fontFamily=Helvetica;fontSize=11;fontColor=default;endArrow=classic;exitX=1;exitY=0.5;exitDx=0;exitDy=0;" edge="1" parent="1" source="6HdpZ-S6u97lX5I0Tlse-5" target="6HdpZ-S6u97lX5I0Tlse-3">
          <mxGeometry relative="1" as="geometry">
            <mxPoint x="-200" y="200" as="targetPoint" />
          </mxGeometry>
        </mxCell>
        <mxCell id="28p1LHsWdC4im2PrQQWG-4" value="Status, Action Result" style="edgeLabel;html=1;align=center;verticalAlign=middle;resizable=0;points=[];fontSize=11;fontFamily=Helvetica;fontColor=default;" vertex="1" connectable="0" parent="28p1LHsWdC4im2PrQQWG-3">
          <mxGeometry x="-0.0186" y="2" relative="1" as="geometry">
            <mxPoint as="offset" />
          </mxGeometry>
        </mxCell>
        <mxCell id="6HdpZ-S6u97lX5I0Tlse-5" value="ESP32" style="shape=image;html=1;verticalAlign=top;verticalLabelPosition=bottom;labelBackgroundColor=#ffffff;imageAspect=0;aspect=fixed;image=https://cdn2.iconfinder.com/data/icons/electronic-13/480/3-electronic-arduino-chipset-icon-2-128.png;clipPath=inset(15.63% 16.41% 17.97% 16.41%);" parent="1" vertex="1">
          <mxGeometry x="-600" y="320" width="111.29" height="110" as="geometry" />
        </mxCell>
        <mxCell id="28p1LHsWdC4im2PrQQWG-1" style="rounded=0;orthogonalLoop=1;jettySize=auto;html=1;entryX=1;entryY=0.5;entryDx=0;entryDy=0;" edge="1" parent="1" source="28p1LHsWdC4im2PrQQWG-14" target="6HdpZ-S6u97lX5I0Tlse-5">
          <mxGeometry relative="1" as="geometry" />
        </mxCell>
        <mxCell id="28p1LHsWdC4im2PrQQWG-2" value="Action" style="edgeLabel;html=1;align=center;verticalAlign=middle;resizable=0;points=[];fontSize=11;fontFamily=Helvetica;fontColor=default;" vertex="1" connectable="0" parent="28p1LHsWdC4im2PrQQWG-1">
          <mxGeometry x="-0.0066" y="2" relative="1" as="geometry">
            <mxPoint x="16" y="1" as="offset" />
          </mxGeometry>
        </mxCell>
        <mxCell id="28p1LHsWdC4im2PrQQWG-5" style="edgeStyle=none;shape=connector;rounded=0;orthogonalLoop=1;jettySize=auto;html=1;entryX=0.07;entryY=0.4;entryDx=0;entryDy=0;entryPerimeter=0;labelBackgroundColor=default;strokeColor=default;align=center;verticalAlign=middle;fontFamily=Helvetica;fontSize=11;fontColor=default;endArrow=classic;" edge="1" parent="1" source="6HdpZ-S6u97lX5I0Tlse-3" target="6HdpZ-S6u97lX5I0Tlse-1">
          <mxGeometry relative="1" as="geometry" />
        </mxCell>
        <mxCell id="28p1LHsWdC4im2PrQQWG-6" value="Status Log, Action Log" style="edgeLabel;html=1;align=center;verticalAlign=middle;resizable=0;points=[];fontSize=11;fontFamily=Helvetica;fontColor=default;" vertex="1" connectable="0" parent="28p1LHsWdC4im2PrQQWG-5">
          <mxGeometry x="-0.059" relative="1" as="geometry">
            <mxPoint x="1" as="offset" />
          </mxGeometry>
        </mxCell>
        <mxCell id="28p1LHsWdC4im2PrQQWG-9" style="edgeStyle=none;shape=connector;rounded=0;orthogonalLoop=1;jettySize=auto;html=1;labelBackgroundColor=default;strokeColor=default;align=center;verticalAlign=middle;fontFamily=Helvetica;fontSize=11;fontColor=default;endArrow=classic;exitX=0.13;exitY=0.77;exitDx=0;exitDy=0;exitPerimeter=0;" edge="1" parent="1" source="6HdpZ-S6u97lX5I0Tlse-1" target="28p1LHsWdC4im2PrQQWG-14">
          <mxGeometry relative="1" as="geometry" />
        </mxCell>
        <mxCell id="28p1LHsWdC4im2PrQQWG-10" value="Status Log, Current State" style="edgeLabel;html=1;align=center;verticalAlign=middle;resizable=0;points=[];fontSize=11;fontFamily=Helvetica;fontColor=default;" vertex="1" connectable="0" parent="28p1LHsWdC4im2PrQQWG-9">
          <mxGeometry x="-0.0421" relative="1" as="geometry">
            <mxPoint as="offset" />
          </mxGeometry>
        </mxCell>
        <mxCell id="28p1LHsWdC4im2PrQQWG-15" style="edgeStyle=none;shape=connector;rounded=0;orthogonalLoop=1;jettySize=auto;html=1;labelBackgroundColor=default;strokeColor=default;align=center;verticalAlign=middle;fontFamily=Helvetica;fontSize=11;fontColor=default;endArrow=classic;" edge="1" parent="1" source="28p1LHsWdC4im2PrQQWG-14" target="6HdpZ-S6u97lX5I0Tlse-3">
          <mxGeometry relative="1" as="geometry">
            <mxPoint x="-200" y="290" as="targetPoint" />
          </mxGeometry>
        </mxCell>
        <mxCell id="28p1LHsWdC4im2PrQQWG-17" value="Action" style="edgeLabel;html=1;align=center;verticalAlign=middle;resizable=0;points=[];fontSize=11;fontFamily=Helvetica;fontColor=default;" vertex="1" connectable="0" parent="28p1LHsWdC4im2PrQQWG-15">
          <mxGeometry x="-0.0423" relative="1" as="geometry">
            <mxPoint as="offset" />
          </mxGeometry>
        </mxCell>
        <mxCell id="28p1LHsWdC4im2PrQQWG-14" value="Client" style="sketch=0;outlineConnect=0;fontColor=#232F3E;gradientColor=none;fillColor=#232F3D;strokeColor=none;dashed=0;verticalLabelPosition=bottom;verticalAlign=top;align=center;html=1;fontSize=12;fontStyle=0;aspect=fixed;pointerEvents=1;shape=mxgraph.aws4.client;fontFamily=Helvetica;" vertex="1" parent="1">
          <mxGeometry x="-254.26" y="560" width="98.53" height="96" as="geometry" />
        </mxCell>
      </root>
    </mxGraphModel>
  </diagram>
</mxfile>
